# xmcd
#
# Track frame offsets: 
#        150
#        17481
#        35345
#        51648
#        66902
#        88554
#        107452
#        127500
#        148945
#        171087
#        187861
#        206211
#        220987
#        243513
#
# Disc length: 3471 seconds
#
# Revision: 3
# Processed by: cddbd v1.5.2PL0 Copyright (c) Steve Scherf et al.
# Submitted via: ExactAudioCopy v1.0b3
#
DISCID=c40d8d0e
DTITLE=Various Artist - Британская дюжина #1 PLAY 10'03
DYEAR=2003
DGENRE=Rock
TTITLE0=Cayto - c'mere
TTITLE1=Black Box Recorder - these are the things
TTITLE2=Lemon - latin lover
TTITLE3=Honeyroot - french theme
TTITLE4=Four Tet - a serious as your life
TTITLE5=Spacemen 3 - transparent radiation
TTITLE6=Pram - penny arcade
TTITLE7=Sandy Dillon - it must be love
TTITLE8=Super Delta Tree - space geisha
TTITLE9=Aereogramma - indiscretion #243
TTITLE10=Arab Strap - the shy petirer
TTITLE11=Vibronics - rockers delivarence dub
TTITLE12=James Hardway - see through me
TTITLE13=Departure Lounge - animals on my mind
EXTD=
EXTT0=
EXTT1=
EXTT2=
EXTT3=
EXTT4=
EXTT5=
EXTT6=
EXTT7=
EXTT8=
EXTT9=
EXTT10=
EXTT11=
EXTT12=
EXTT13=
PLAYORDER=
